<?xml version="1.0" standalone="no"?>
<!DOCTYPE svg PUBLIC "-//W3C//DTD SVG 20010904//EN"
 "http://www.w3.org/TR/2001/REC-SVG-20010904/DTD/svg10.dtd">
<svg version="1.0" xmlns="http://www.w3.org/2000/svg"
 width="827.000000pt" height="796.000000pt" viewBox="0 0 827.000000 796.000000"
 preserveAspectRatio="xMidYMid meet">

<g transform="translate(0.000000,796.000000) scale(0.100000,-0.100000)"
fill="#000000" stroke="none">
<path d="M4217 7646 c-56 -21 -113 -63 -163 -121 -123 -145 -200 -332 -408
-1000 l-84 -270 -79 -73 c-43 -40 -90 -82 -105 -93 l-26 -19 -17 78 c-32 148
-107 263 -215 332 -232 149 -569 51 -722 -210 -117 -200 -42 -386 185 -459 20
-7 37 -17 37 -23 0 -13 -63 -103 -182 -260 -158 -208 -338 -353 -415 -333 -48
12 -100 77 -125 157 -33 104 -33 358 0 533 57 303 159 620 295 917 69 150 192
340 274 421 46 47 121 87 163 87 49 0 90 -47 90 -102 0 -63 -23 -133 -70 -210
-46 -77 -47 -84 -20 -93 51 -16 68 5 120 150 38 107 44 197 16 240 -55 84
-236 86 -373 3 -218 -131 -469 -572 -597 -1048 -58 -216 -70 -311 -70 -525 0
-179 2 -209 23 -282 25 -90 76 -185 119 -221 76 -66 192 -83 276 -42 100 48
247 197 384 388 36 50 69 92 73 92 4 0 9 -51 11 -112 9 -206 91 -328 220 -328
121 0 310 192 419 424 44 95 89 243 89 295 0 20 6 46 13 59 11 22 168 154 174
148 2 -2 -11 -58 -29 -124 -31 -117 -33 -122 -59 -122 -15 0 -37 -8 -49 -18
-18 -15 -21 -22 -12 -38 6 -11 22 -26 36 -34 16 -8 24 -19 21 -29 -13 -42 -69
-303 -95 -445 -76 -405 -139 -1056 -119 -1232 30 -269 120 -415 239 -389 190
42 422 708 465 1335 8 112 -9 302 -36 409 -25 99 -78 204 -136 270 -49 56 -48
71 8 71 15 0 79 13 144 30 133 33 297 108 414 188 41 28 76 50 78 48 2 -1 -15
-83 -37 -181 -22 -98 -40 -179 -40 -181 0 -2 -24 -4 -52 -4 -101 -1 -179 -33
-186 -77 -5 -31 31 -53 117 -71 44 -9 81 -21 81 -27 0 -5 -14 -107 -31 -225
-43 -308 -58 -474 -65 -730 -9 -313 12 -468 79 -578 42 -70 93 -104 163 -110
78 -6 130 16 198 88 141 147 220 431 233 830 7 217 -10 360 -58 505 -36 108
-74 173 -142 242 -32 33 -48 56 -42 62 6 5 89 57 185 114 l175 105 8 -81 c10
-110 31 -177 70 -228 60 -78 138 -98 226 -58 63 28 114 73 206 183 44 52 83
95 87 95 3 1 11 -23 17 -51 16 -75 57 -154 94 -183 87 -66 227 -48 364 46 73
50 206 182 297 294 145 178 155 195 113 195 -17 0 -48 -31 -122 -122 -223
-273 -366 -394 -492 -414 -115 -18 -140 142 -71 441 11 50 24 96 27 103 4 7
41 28 82 46 103 45 155 80 221 148 163 169 144 352 -37 352 -71 0 -119 -27
-205 -114 -126 -128 -219 -310 -256 -505 -9 -49 -22 -104 -28 -122 -19 -54
-231 -288 -298 -329 -69 -42 -80 -38 -103 40 -26 84 -29 189 -11 314 9 62 21
123 27 135 6 12 44 42 86 67 143 86 313 271 341 370 19 72 -26 115 -118 114
-195 -3 -403 -239 -487 -553 l-28 -104 -125 -79 c-139 -87 -310 -178 -334
-178 -9 0 -16 5 -16 11 0 27 143 617 156 645 8 17 36 56 61 85 63 73 164 229
219 336 57 112 114 288 121 375 8 91 -9 118 -73 118 -60 0 -90 -17 -154 -87
-135 -148 -247 -390 -364 -794 -24 -85 -47 -161 -51 -169 -7 -20 -152 -128
-235 -176 -91 -53 -209 -101 -315 -129 -98 -25 -225 -42 -225 -30 0 16 152
560 164 590 7 16 50 73 95 125 373 432 602 883 524 1029 -10 19 -30 43 -44 53
-34 25 -123 32 -172 14z m132 -80 c75 -121 -58 -442 -330 -796 -121 -157 -158
-199 -159 -178 0 22 175 551 230 690 60 155 173 318 220 318 10 0 28 -15 39
-34z m637 -517 c-14 -120 -91 -305 -197 -473 -29 -47 -57 -86 -61 -86 -15 0
96 327 153 450 84 180 117 214 105 109z m1135 -535 c55 -59 11 -185 -100 -285
-57 -51 -186 -125 -195 -111 -7 12 54 159 105 247 51 90 123 175 148 175 10 0
28 -12 42 -26z m-3085 -38 c82 -42 129 -87 178 -169 43 -72 74 -202 67 -284
-1 -14 -101 -78 -198 -127 -106 -53 -263 -93 -263 -67 0 50 101 324 171 462
22 45 38 87 35 95 -3 9 -21 14 -48 14 -39 0 -47 -5 -109 -68 -78 -80 -147
-209 -202 -382 -34 -102 -35 -105 -62 -102 -66 8 -152 82 -181 157 -49 130 42
324 202 430 144 95 281 109 410 41z m2508 2 c14 -40 -42 -143 -121 -223 -68
-69 -190 -161 -200 -152 -11 11 61 171 109 243 59 88 151 167 188 161 8 -1 19
-14 24 -29z m-2270 -565 c-40 -222 -190 -480 -343 -590 -40 -29 -80 -53 -88
-53 -8 0 -24 21 -35 47 -27 62 -35 198 -18 329 16 132 22 144 62 144 76 0 280
76 373 138 46 32 57 28 49 -15z m422 -195 c56 -63 105 -162 135 -273 31 -113
38 -414 14 -610 -39 -331 -155 -730 -263 -913 -47 -79 -118 -162 -138 -162
-21 0 -50 54 -64 121 -20 93 -7 325 39 679 66 520 193 1210 221 1210 5 0 29
-24 56 -52z m610 -80 c-3 -13 -6 -29 -6 -35 0 -8 -15 -13 -39 -13 -45 0 -91
15 -91 29 0 18 54 40 99 41 40 0 43 -2 37 -22z m282 -102 c84 -79 144 -201
176 -360 67 -322 11 -815 -121 -1069 -48 -91 -142 -179 -186 -175 -36 3 -69
45 -89 112 -22 70 -15 512 10 769 31 312 87 686 112 745 15 34 46 27 98 -22z"/>
<path d="M2215 5045 c-170 -38 -296 -115 -447 -273 -248 -260 -459 -671 -628
-1222 l-56 -185 -65 3 c-83 4 -214 35 -298 70 -172 72 -336 233 -444 436 -37
69 -66 93 -96 76 -26 -13 -26 -26 -1 -94 42 -111 167 -268 280 -351 59 -43
187 -107 270 -133 79 -26 225 -52 291 -52 27 0 49 -2 49 -4 0 -2 -18 -93 -40
-203 -90 -456 -141 -998 -141 -1523 -1 -276 6 -429 22 -492 12 -45 41 -68 89
-68 65 0 72 12 86 156 13 144 48 262 116 399 81 162 198 311 283 361 47 27 70
24 79 -9 12 -40 19 -261 11 -340 l-7 -78 -72 -77 c-133 -143 -205 -261 -206
-338 0 -57 24 -77 94 -76 183 2 334 209 361 497 9 93 30 138 108 232 99 120
225 296 338 473 56 88 106 160 111 160 5 0 27 -9 49 -21 51 -26 180 -59 230
-59 21 0 41 -5 45 -11 3 -6 -7 -29 -24 -52 -70 -99 -171 -332 -222 -513 -67
-241 -103 -551 -81 -701 30 -199 155 -326 323 -326 100 0 178 41 289 152 112
112 166 197 305 478 64 128 119 235 123 237 4 3 17 -15 29 -39 32 -65 84 -118
149 -150 49 -24 70 -29 138 -29 130 -1 178 23 347 170 56 49 104 88 107 86 2
-1 4 -68 5 -150 1 -145 2 -148 33 -212 37 -75 80 -109 139 -112 82 -3 121 23
235 160 45 53 85 98 88 100 4 1 3 -37 -2 -85 -4 -49 -7 -138 -5 -199 3 -104 5
-114 40 -186 45 -89 85 -124 163 -141 140 -29 275 78 431 341 27 45 53 82 58
82 5 0 6 -32 3 -72 -4 -40 -10 -209 -13 -375 -6 -230 -4 -308 5 -331 20 -48
95 -69 146 -42 47 25 52 56 69 395 25 496 26 515 46 605 62 287 298 671 508
831 65 49 151 85 178 75 22 -8 44 -69 44 -122 0 -93 -59 -274 -134 -408 -86
-153 -239 -321 -358 -393 -30 -18 -87 -41 -127 -52 -43 -10 -80 -26 -88 -37
-37 -50 4 -267 81 -429 109 -231 254 -376 448 -449 302 -114 707 -50 1028 162
311 205 524 512 735 1057 56 144 205 599 205 624 0 11 -9 23 -22 27 -33 10
-53 -23 -92 -150 -19 -61 -58 -187 -86 -281 -144 -475 -323 -810 -559 -1046
-64 -64 -150 -139 -191 -166 -225 -150 -489 -234 -688 -218 -311 24 -506 223
-652 664 -70 211 -71 196 27 231 134 47 218 97 316 190 135 128 221 264 283
447 36 105 39 238 6 299 -43 83 -103 112 -208 101 -74 -8 -127 -35 -217 -112
-129 -110 -259 -284 -363 -487 -30 -60 -58 -108 -60 -105 -7 6 34 379 62 574
23 161 70 422 76 428 2 2 51 10 110 19 345 54 767 248 1068 491 284 229 495
474 624 725 128 251 168 443 131 637 -40 209 -174 344 -387 387 -101 21 -183
20 -293 -3 -602 -125 -1154 -902 -1426 -2008 l-52 -213 -45 0 c-124 0 -371 53
-541 116 -357 134 -615 325 -779 579 -94 147 -105 160 -125 152 -60 -23 72
-258 228 -405 254 -241 711 -436 1111 -474 128 -13 139 -15 137 -33 -1 -11
-13 -82 -27 -158 -35 -189 -70 -469 -101 -802 l-26 -280 -75 -140 c-120 -220
-197 -315 -310 -381 -63 -37 -83 -30 -119 40 -54 109 -47 294 22 576 36 152
66 237 151 432 52 118 55 142 22 153 -79 25 -244 -205 -333 -462 -23 -66 -38
-88 -162 -228 -76 -86 -151 -163 -168 -171 -28 -15 -31 -15 -43 1 -56 76 -39
332 35 555 81 242 180 385 325 471 43 25 76 20 112 -16 35 -35 32 -85 -11
-174 -19 -40 -35 -75 -35 -77 0 -12 49 -2 63 14 25 28 77 167 77 207 0 74 -87
122 -205 112 -171 -13 -370 -212 -481 -479 -33 -78 -46 -96 -128 -177 -165
-164 -275 -234 -368 -235 -116 -2 -176 122 -165 344 5 109 31 266 46 283 4 4
34 14 67 22 190 49 407 205 535 385 59 83 76 116 89 176 23 101 -17 188 -98
215 -58 20 -168 14 -242 -13 -195 -71 -407 -304 -510 -561 -69 -172 -83 -246
-85 -438 l-2 -176 -143 -281 c-78 -154 -162 -309 -188 -344 -123 -170 -297
-288 -379 -258 -45 18 -91 70 -114 129 -41 108 -20 351 55 664 48 199 96 341
188 559 79 189 86 221 50 232 -9 3 -68 12 -130 20 -126 17 -216 52 -267 105
l-29 31 131 258 c145 282 202 416 259 597 34 111 37 130 38 245 1 120 0 127
-27 173 -41 69 -89 92 -197 92 -71 -1 -95 -5 -144 -28 -223 -103 -370 -313
-431 -616 -21 -104 -16 -321 10 -421 35 -135 140 -297 219 -340 16 -8 26 -20
23 -30 -14 -54 -403 -617 -465 -673 -19 -18 -20 -17 -27 40 -10 83 -40 154
-80 193 -30 29 -43 34 -94 38 -47 3 -69 0 -103 -17 -95 -46 -240 -228 -329
-414 -23 -48 -43 -86 -45 -84 -6 6 15 446 31 662 33 419 82 759 160 1102 l16
72 57 12 c166 34 385 133 576 259 458 304 854 858 822 1150 -12 110 -77 205
-174 254 -83 43 -251 57 -367 31z m303 -81 c168 -84 199 -277 82 -522 -83
-175 -219 -359 -387 -524 -177 -175 -340 -296 -527 -392 -140 -71 -349 -145
-361 -126 -7 11 74 280 130 429 231 622 515 1031 788 1136 90 35 204 35 275
-1z m4757 -121 c65 -20 146 -74 190 -126 202 -235 129 -664 -184 -1084 -87
-117 -362 -390 -484 -482 -236 -176 -492 -309 -756 -391 -117 -37 -311 -74
-322 -63 -10 10 71 344 136 560 202 672 519 1212 847 1443 210 149 402 196
573 143z m-4614 -1069 c87 -83 77 -293 -28 -574 -37 -99 -295 -625 -319 -649
-11 -13 -17 -7 -38 40 -102 223 -113 562 -27 830 53 165 159 311 264 364 63
32 107 28 148 -11z m1477 -1020 c79 -51 59 -195 -46 -336 -48 -65 -160 -173
-225 -217 -60 -41 -223 -119 -267 -128 -32 -6 -33 -5 -26 23 16 63 100 259
147 343 87 151 223 297 306 327 41 15 75 11 111 -12z m-2613 -1456 c-22 -87
-59 -161 -101 -197 -41 -37 -50 -38 -64 -10 -22 40 27 139 129 258 39 47 46
51 49 33 2 -12 -4 -50 -13 -84z"/>
</g>
</svg>
